HIERARCHY
ROOT hip
{
  OFFSET 0 0 0
  CHANNELS 6 Xposition Yposition Zposition Zrotation Yrotation Xrotation
  JOINT abdomen
  {
    OFFSET 0 20.6881 -0.73152
    CHANNELS 3 Zrotation Xrotation Yrotation
    JOINT chest
    {
      OFFSET 0 11.7043 -0.48768
      CHANNELS 3 Zrotation Xrotation Yrotation
      JOINT neck
      {
        OFFSET 0 22.1894 -2.19456
        CHANNELS 3 Zrotation Xrotation Yrotation
        JOINT head
        {
          OFFSET -0.24384 7.07133 1.2192
          CHANNELS 3 Zrotation Xrotation Yrotation
          JOINT leftEye
          {
            OFFSET 4.14528 8.04674 8.04672
            CHANNELS 3 Zrotation Xrotation Yrotation
            End Site
            {
              OFFSET 1 0 0
            }
          }
          JOINT rightEye
          {
            OFFSET -3.6576 8.04674 8.04672
            CHANNELS 3 Zrotation Xrotation Yrotation
            End Site
            {
              OFFSET 1 0 0
            }
          }
        }
      }
      JOINT rCollar
      {
        OFFSET -2.68224 19.2634 -4.8768
        CHANNELS 3 Zrotation Xrotation Yrotation
        JOINT rShldr
        {
          OFFSET -8.77824 -1.95073 1.46304
          CHANNELS 3 Zrotation Xrotation Yrotation
          JOINT rForeArm
          {
            OFFSET -28.1742 -1.7115 0.48768
            CHANNELS 3 Zrotation Xrotation Yrotation
            JOINT rHand
            {
              OFFSET -22.5879 0.773209 7.07136
              CHANNELS 3 Zrotation Xrotation Yrotation
              JOINT rThumb1
              {
                OFFSET -1.2192 -0.487915 3.41376
                CHANNELS 3 Zrotation Xrotation Yrotation
                JOINT rThumb2
                {
                  OFFSET -3.37035 -0.52449 3.41376
                  CHANNELS 3 Zrotation Xrotation Yrotation
                  End Site
                  {
                    OFFSET -1.78271 -1.18214 1.43049
                  }
                }
              }
              JOINT rIndex1
              {
                OFFSET -7.75947 0.938293 5.60832
                CHANNELS 3 Zrotation Xrotation Yrotation
                JOINT rIndex2
                {
                  OFFSET -2.54057 -0.884171 1.56538
                  CHANNELS 3 Zrotation Xrotation Yrotation
                  End Site
                  {
                    OFFSET -1.62519 -0.234802 1.16502
                  }
                }
              }
              JOINT rMid1
              {
                OFFSET -8.24714 1.18213 3.41376
                CHANNELS 3 Zrotation Xrotation Yrotation
                JOINT rMid2
                {
                  OFFSET -3.10165 -0.590103 1.0647
                  CHANNELS 3 Zrotation Xrotation Yrotation
                  End Site
                  {
                    OFFSET -2.48547 -0.328903 0.83742
                  }
                }
              }
              JOINT rRing1
              {
                OFFSET -8.82822 0.546677 1.51678
                CHANNELS 3 Zrotation Xrotation Yrotation
                JOINT rRing2
                {
                  OFFSET -2.60934 -0.819778 -0.0198488
                  CHANNELS 3 Zrotation Xrotation Yrotation
                  End Site
                  {
                    OFFSET -2.33842 -0.294052 0.168128
                  }
                }
              }
              JOINT rPinky1
              {
                OFFSET -8.27202 -0.0477905 -0.4584
                CHANNELS 3 Zrotation Xrotation Yrotation
                JOINT rPinky2
                {
                  OFFSET -1.82734 -0.647385 -0.700984
                  CHANNELS 3 Zrotation Xrotation Yrotation
                  End Site
                  {
                    OFFSET -1.69225 -0.51767 -0.607171
                  }
                }
              }
            }
          }
        }
      }
      JOINT lCollar
      {
        OFFSET 2.68224 19.2634 -4.8768
        CHANNELS 3 Zrotation Xrotation Yrotation
        JOINT lShldr
        {
          OFFSET 8.77824 -1.95073 1.46304
          CHANNELS 3 Zrotation Xrotation Yrotation
          JOINT lForeArm
          {
            OFFSET 28.1742 -1.7115 0.48768
            CHANNELS 3 Zrotation Xrotation Yrotation
            JOINT lHand
            {
              OFFSET 22.5879 0.773209 7.07136
              CHANNELS 3 Zrotation Xrotation Yrotation
              JOINT lThumb1
              {
                OFFSET 1.2192 -0.487915 3.41376
                CHANNELS 3 Zrotation Xrotation Yrotation
                JOINT lThumb2
                {
                  OFFSET 3.37035 -0.52449 3.41376
                  CHANNELS 3 Zrotation Xrotation Yrotation
                  End Site
                  {
                    OFFSET 1.78271 -1.18214 1.43049
                  }
                }
              }
              JOINT lIndex1
              {
                OFFSET 7.75947 0.938293 5.60832
                CHANNELS 3 Zrotation Xrotation Yrotation
                JOINT lIndex2
                {
                  OFFSET 2.54057 -0.884171 1.56538
                  CHANNELS 3 Zrotation Xrotation Yrotation
                  End Site
                  {
                    OFFSET 1.62519 -0.234802 1.16502
                  }
                }
              }
              JOINT lMid1
              {
                OFFSET 8.24714 1.18213 3.41376
                CHANNELS 3 Zrotation Xrotation Yrotation
                JOINT lMid2
                {
                  OFFSET 3.10165 -0.590103 1.0647
                  CHANNELS 3 Zrotation Xrotation Yrotation
                  End Site
                  {
                    OFFSET 2.48547 -0.328903 0.83742
                  }
                }
              }
              JOINT lRing1
              {
                OFFSET 8.82822 0.546677 1.51678
                CHANNELS 3 Zrotation Xrotation Yrotation
                JOINT lRing2
                {
                  OFFSET 2.60934 -0.819778 -0.0198488
                  CHANNELS 3 Zrotation Xrotation Yrotation
                  End Site
                  {
                    OFFSET 2.33842 -0.294052 0.168128
                  }
                }
              }
              JOINT lPinky1
              {
                OFFSET 8.27202 -0.0477905 -0.4584
                CHANNELS 3 Zrotation Xrotation Yrotation
                JOINT lPinky2
                {
                  OFFSET 1.82734 -0.647385 -0.700984
                  CHANNELS 3 Zrotation Xrotation Yrotation
                  End Site
                  {
                    OFFSET 1.69225 -0.51767 -0.607171
                  }
                }
              }
            }
          }
        }
      }
    }
  }
  JOINT rButtock
  {
    OFFSET -8.77824 4.35084 1.2192
    CHANNELS 3 Zrotation Xrotation Yrotation
    JOINT rThigh
    {
      OFFSET 0 -1.70687 -2.19456
      CHANNELS 3 Zrotation Xrotation Yrotation
      JOINT rShin
      {
        OFFSET 0 -36.8199 0.73152
        CHANNELS 3 Zrotation Xrotation Yrotation
        JOINT rFoot
        {
          OFFSET 0.73152 -45.1104 -5.12064
          CHANNELS 3 Zrotation Xrotation Yrotation
          End Site
          {
            OFFSET -1.1221 -3.69964 12.103
          }
        }
      }
    }
  }
  JOINT lButtock
  {
    OFFSET 8.77824 4.35084 1.2192
    CHANNELS 3 Zrotation Xrotation Yrotation
    JOINT lThigh
    {
      OFFSET 0 -1.70687 -2.19456
      CHANNELS 3 Zrotation Xrotation Yrotation
      JOINT lShin
      {
        OFFSET 0 -36.8199 0.73152
        CHANNELS 3 Zrotation Xrotation Yrotation
        JOINT lFoot
        {
          OFFSET -0.73152 -45.1104 -5.12064
          CHANNELS 3 Zrotation Xrotation Yrotation
          End Site
          {
            OFFSET 1.1221 -3.69964 12.103
          }
        }
      }
    }
  }
}
MOTION
Frames:	5
Frame Time:	0.03333
0.0 0.0 0.0 0.0 0.0 0.0 0.0 0.0 0.0 0.0 0.0 0.0 0.0 0.0 0.0 0.0 0.0 0.0 0.0 0.0 0.0 0.0 0.0 0.0 0.0 0.0 0.0 0.0 0.0 0.0 0.0 0.0 0.0 0.0 0.0 0.0 0.0 0.0 0.0 0.0 0.0 0.0 0.0 0.0 0.0 0.0 0.0 0.0 0.0 0.0 0.0 0.0 0.0 0.0 0.0 0.0 0.0 0.0 0.0 0.0 0.0 0.0 0.0 0.0 0.0 0.0 0.0 0.0 0.0 0.0 0.0 0.0 0.0 0.0 0.0 0.0 0.0 0.0 0.0 0.0 0.0 0.0 0.0 0.0 0.0 0.0 0.0 0.0 0.0 0.0 0.0 0.0 0.0 0.0 0.0 0.0 0.0 0.0 0.0 0.0 0.0 0.0 0.0 0.0 0.0 0.0 0.0 0.0 0.0 0.0 0.0 0.0 0.0 0.0 0.0 0.0 0.0 0.0 0.0 0.0 0.0 0.0 0.0 0.0 0.0 0.0 0.0 0.0 0.0 0.0 0.0 0.0
-1.0816 78.8576 3.1242 -13.202274 -44.030259 9.135045 8.031328 5.983873 81.414821 -3.014586 -3.056613 -75.616865 7.606562 27.073547 120.059684 -20.66248 20.119645 -131.429812 -0.002694 -0.0 0.002026 -0.002645 0.0 -0.001473 3.737904 -33.150917 -6.41253 54.496496 -4.19234 -34.176293 29.599178 12.966984 28.117211 -23.438454 53.435245 9.89328 -174.034043 -11.700416 89.878801 172.408654 -23.516357 98.320226 -77.666862 43.031856 64.53856 94.609656 -65.45234 46.372481 -29.516426 47.60841 23.795391 -83.153975 64.267591 75.289077 -0.021292 -1.725906 -0.543396 -55.396113 -86.718033 -77.051136 -152.875343 39.991385 -148.060108 16.331683 43.900103 6.223617 0.165001 0.97933 -0.217807 8.50955 85.676578 -87.31154 32.811801 -82.147214 -2.249955 5.670034 23.763216 -1.155273 -116.309088 -50.009768 -56.954082 170.302325 -33.544751 -125.768727 -5.922074 -10.174358 2.968915 -55.655354 -48.654916 -11.380501 -2.099707 -6.305588 1.080051 85.943226 64.249477 -77.77107 132.481304 54.102213 -155.531977 159.188531 0.155299 -178.617843 25.540069 -38.087258 24.59783 -2.07039 -3.034207 1.259277 0.000731 0.001953 -0.0 6.199499 -7.914051 83.097662 42.6148 1.312729 -81.202067 -77.227924 18.432355 -6.814352 0.001363 -0.000361 -0.001752 30.657812 -52.536678 25.568352 18.825309 35.312148 12.323888 89.831735 -52.375935 -53.750374
-1.6018999999999999 78.3018 4.902 -13.896545 -44.858198 9.235511 10.877318 8.558382 -1.184558 0.139125 -5.486105 7.935943 7.948213 20.349515 83.275576 -22.106156 4.872576 -94.75074 -0.000122 -0.0 0.000749 0.000135 0.0 4.4e-05 -157.323151 -17.488848 164.609236 133.732732 -1.203671 177.628583 97.311198 -33.009032 91.27032 -139.923773 67.167387 117.602371 -78.03094 38.687912 42.412813 178.168305 -46.741226 76.900632 -69.681914 43.291395 57.342846 -175.417506 -27.441318 112.287206 68.982893 -80.154346 40.575663 -167.120885 -15.93692 143.976809 3e-05 0.063648 0.020873 11.106345 -13.792297 -1.712294 -79.225916 -51.409066 -77.661577 -146.594325 12.19696 -142.852407 -4.240303 -44.74275 8.646867 87.779524 -25.638514 132.52582 176.919415 11.472972 141.725043 8.251985 30.803178 -1.840362 170.593773 -8.277505 -89.950566 -33.570654 -65.111759 -27.571646 159.052718 -31.319938 -122.654423 61.341939 57.353146 -46.646849 0.056746 0.168117 -0.031084 163.731359 -6.173567 -143.494546 145.11949 0.185752 179.185866 156.276052 63.711419 -172.353438 169.012574 80.995121 147.418017 -1.53009 0.36886 1.163056 0.000464 -0.000438 -0.000597 5.919558 -6.106128 67.056116 53.159578 10.259592 65.723656 -145.797756 0.298713 -169.301352 179.99623 75.75008 0.00389 -160.134797 18.870416 -6.278659 20.109473 35.122769 20.636321 -39.412579 37.10021 2.353772
-1.9341000000000002 77.65910000000001 6.733300000000001 -14.506781 -46.388441 9.489217 10.712997 4.313944 -180.0 0.088884 0.676993 -171.905372 -1.582918 12.920936 14.123678 -0.782051 -14.972185 -23.232512 -0.001084 0.0 -0.00058 -0.000986 -0.0 0.003229 1.99035 -14.052918 -2.880942 62.500208 -10.330933 -19.098925 175.446342 -25.610989 103.766059 171.083997 -16.391006 143.808372 -93.743324 37.963371 53.548717 75.786082 -48.172893 33.738692 -161.900529 -36.243321 122.688209 -159.848347 -16.600992 119.443518 173.124714 -66.297912 137.615436 -171.308293 -28.280358 143.927986 -0.000255 0.063901 0.019671 -156.243952 -16.854515 173.838708 54.190991 87.26058 -14.472215 -141.946617 -6.078947 -137.433306 155.809843 -5.55527 -162.267122 61.854675 17.454091 -7.524561 -163.962825 42.376882 128.681771 15.715495 46.553974 -5.409063 5.59566 5.416578 -1.116727 143.841442 -50.338785 -116.586042 132.818341 12.807458 -111.109344 89.406201 55.570062 -67.915433 156.688165 5.002855 -141.076375 34.757566 54.922667 -29.488193 0.000955 0.022618 -0.007168 154.833432 6.438803 -171.003653 -17.603142 61.627942 -12.868201 -0.578405 -2.428876 1.368262 179.986919 75.749879 0.010763 -163.271049 68.251181 162.06842 4.9445 -56.285136 45.072676 -177.822489 29.560401 -91.557897 0.005856 0.000439 0.005856 33.883303 -52.048696 -139.580858 -21.558731 -44.389497 27.955103 108.601969 -11.692371 -137.275377
-2.0838 77.0019 8.3894 -14.506993 -47.635887 9.612785 10.011057 9.42948 -1.241021 -0.136316 -5.56499 9.904418 9.04791 23.150933 101.588686 -23.973429 12.125982 -107.67424 0.001504 0.0 0.001164 -0.004221 -0.0 0.001132 -129.706559 55.102405 133.553383 176.306566 4.853365 111.629717 146.63246 -64.148247 75.469002 173.623293 -8.098887 144.727497 -121.365035 30.329393 71.957322 -62.169018 -6.485027 40.723787 73.419124 -73.571807 26.562591 31.769006 -25.921862 -5.931771 0.540322 -1.590053 -0.295198 -172.076463 -31.344183 144.105237 -69.298075 72.947486 87.016384 -158.708393 -28.262327 -179.913946 -81.323372 -51.181043 -79.740967 -22.608416 -39.787152 -24.687451 155.417655 -2.951352 -161.718689 61.160348 7.895984 -9.715639 -30.293165 -8.242249 65.445896 -175.003041 1.167939 -146.145014 67.033115 37.763726 -34.644324 -83.513201 -52.731537 -28.06829 90.224288 41.072202 -75.797249 90.079106 52.231575 -66.440698 161.519243 -9.304041 -143.625996 -80.982059 -77.630207 -52.543541 145.120581 1.975101 179.748522 -11.767007 29.60851 5.636709 -1.136872 3.040039 -1.044633 146.301912 8.139459 142.818091 -179.981893 75.750047 -0.012389 -168.044749 69.428085 135.819426 24.989713 -38.790528 -120.875912 -40.092264 10.826088 -40.241868 0.001057 0.000252 0.001057 31.857805 -49.640739 67.791014 47.967308 20.852275 54.13412 -103.390299 -37.743336 135.480093
